<svg width="24" height="24" viewBox="0 0 24 24" fill="none" xmlns="http://www.w3.org/2000/svg">
<g clip-path="url(#clip0)">
<path d="M19.4531 2.66235C19.5153 2.71171 19.5739 2.76782 19.6355 2.81863L19.6359 2.81699C19.5797 2.76079 19.5234 2.70454 19.4531 2.66235Z" fill="#FF7CB9"/>
<path d="M23.9998 12.2531C23.9857 12.7452 23.9436 13.2234 23.8731 13.7015L20.395 17.2874L16.8654 22.9124C16.4295 23.1093 15.9654 23.2921 15.4873 23.4328L11.9998 20.1421L11.2404 19.4249L5.81226 22.2233C5.30601 21.914 4.81382 21.5765 4.36382 21.1968L3.02788 14.8265L0.0419922 10.889C0.0981953 10.4109 0.168508 9.94678 0.266945 9.48272L5.2919 6.02339L6.36065 1.46714C6.79659 1.22803 7.26065 1.01714 7.72476 0.848389L11.9998 2.14214L13.6873 2.66245L19.6356 2.81714C20.0434 3.15464 20.4513 3.52026 20.8029 3.92812L20.7466 8.96245L23.9998 12.2531Z" fill="#FA5E97"/>
<path d="M24 12.2531C23.9859 12.7452 23.9438 13.2234 23.8734 13.7015L20.3953 17.2874L16.8657 22.9125C16.4297 23.1093 15.9657 23.2921 15.4875 23.4328L12 20.1421V2.14209L13.6875 2.6624L19.6359 2.81709C20.0437 3.15459 20.4516 3.52022 20.8031 3.92807L20.7468 8.9624L24 12.2531Z" fill="#D94F88"/>
<path d="M8.25884 9.27173C9.41187 9.04668 10.537 8.73735 11.6056 8.39985C10.1854 5.79824 8.42759 3.44981 6.36035 1.46704C3.3229 3.09824 1.01187 6.00923 0.266602 9.48262C2.50259 9.93262 5.26352 9.87642 8.25884 9.27173Z" fill="#FF7CB9"/>
<path d="M19.6365 2.81714L19.4396 3.59058C19.1303 4.82808 16.5146 6.59995 13.0834 7.87969L12.9287 7.93589C12.6334 7.38745 12.324 6.83897 12.0006 6.31866C10.7912 4.32183 9.34273 2.47964 7.72559 0.848438C9.04746 0.328125 10.4959 0 12.0005 0C14.6864 0 17.1896 0.946875 19.1865 2.45152C19.3411 2.56402 19.4959 2.67656 19.6365 2.81714Z" fill="#FF7CB9"/>
<path d="M13.4766 12.5767C12.9703 12.7595 12.4782 12.9564 12 13.1814C7.92183 15.0095 4.88438 18.047 4.4062 20.9439C4.39223 21.0283 4.37812 21.1127 4.36406 21.197C1.73438 19.0032 0 15.6986 0 12.0001C0 11.6204 0.0140625 11.2548 0.0422344 10.8892C1.15312 11.1001 2.325 11.1845 3.42192 11.1845C5.33442 11.1845 7.14844 10.9314 8.54062 10.6501C9.73598 10.4111 10.8891 10.1017 12 9.75015C12.0844 9.72207 12.1688 9.69394 12.2532 9.66577C12.7031 10.608 13.1109 11.5783 13.4766 12.5767Z" fill="#FF7CB9"/>
<path d="M15.4875 23.4329C14.3906 23.7704 13.2094 24.0001 12 24.0001C9.73593 24.0001 7.61249 23.3204 5.81244 22.2235C5.74213 21.886 5.74213 21.5344 5.79847 21.1688C6.164 18.9329 8.69535 16.4016 12 14.7422C12.6187 14.4328 13.2657 14.1375 13.9406 13.8984C14.8969 16.9079 15.4312 20.1281 15.4875 23.4329Z" fill="#FF7CB9"/>
<path d="M23.8736 13.7014C23.283 17.8218 20.5502 21.267 16.8659 22.9124C16.7674 19.6499 16.2049 16.4718 15.2627 13.4764C18.4127 12.6046 21.3987 12.703 23.8736 13.7014Z" fill="#FF637B"/>
<path d="M24.0002 12.0001V12.2532C21.3143 11.2547 18.1314 11.2126 14.8127 12.1547C14.4471 11.1423 14.0252 10.1579 13.5752 9.20166C15.8814 8.32978 20.1987 6.33286 20.8033 3.92822C22.7581 6.05157 24.0002 8.89219 24.0002 12.0001Z" fill="#FF637B"/>
<path d="M13.4766 12.5765C12.9703 12.7593 12.4782 12.9562 12 13.1812V9.7499C12.0844 9.72182 12.1687 9.6937 12.2531 9.66553C12.7031 10.6078 13.1109 11.5781 13.4766 12.5765Z" fill="#FA5E97"/>
<path d="M13.9406 13.8984C14.8969 16.9078 15.4312 20.1281 15.4875 23.4329C14.3906 23.7704 13.2094 24.0001 12 24.0001V14.7422C12.6187 14.4328 13.2657 14.1375 13.9406 13.8984Z" fill="#FA5E97"/>
<path d="M12.9281 7.93594C12.6328 7.3875 12.3234 6.83902 12 6.3187V0C14.6859 0 17.1891 0.946875 19.1859 2.45152C19.3406 2.56406 19.4954 2.67656 19.6359 2.81714L19.4391 3.59058C19.1297 4.82808 16.5141 6.59995 13.0829 7.87969L12.9281 7.93594Z" fill="#FA5E97"/>
<path d="M23.8736 13.7014C23.283 17.8218 20.5502 21.267 16.8659 22.9124C16.7674 19.6499 16.2049 16.4718 15.2627 13.4764C18.4127 12.6046 21.3987 12.703 23.8736 13.7014Z" fill="#FA5E97"/>
<path d="M24.0002 12.0001V12.2532C21.3143 11.2547 18.1314 11.2126 14.8127 12.1547C14.4471 11.1423 14.0252 10.1579 13.5752 9.20166C15.8814 8.32978 20.1987 6.33286 20.8033 3.92822C22.7581 6.05157 24.0002 8.89219 24.0002 12.0001Z" fill="#FA5E97"/>
</g>
<defs>
<clipPath id="clip0">
<rect width="24" height="24" fill="white"/>
</clipPath>
</defs>
</svg>
