<svg width="120" height="27" viewBox="0 0 120 27" fill="none" xmlns="http://www.w3.org/2000/svg">
<path d="M41.56 5.84H47.08C47.6133 5.84 48.14 5.90667 48.66 6.04C49.18 6.16 49.64 6.36667 50.04 6.66C50.4533 6.94 50.7867 7.30667 51.04 7.76C51.2933 8.21333 51.42 8.76 51.42 9.4C51.42 10.2 51.1933 10.86 50.74 11.38C50.2867 11.9 49.6933 12.2733 48.96 12.5V12.54C49.8533 12.66 50.5867 13.0067 51.16 13.58C51.7333 14.1533 52.02 14.92 52.02 15.88C52.02 16.6533 51.8667 17.3067 51.56 17.84C51.2533 18.36 50.8467 18.78 50.34 19.1C49.8467 19.42 49.2733 19.6533 48.62 19.8C47.98 19.9333 47.3267 20 46.66 20H41.56V5.84ZM44.08 11.6H46.32C47.16 11.6 47.8 11.4333 48.24 11.1C48.68 10.7667 48.9 10.2933 48.9 9.68C48.9 9.04 48.6733 8.58667 48.22 8.32C47.7667 8.05333 47.06 7.92 46.1 7.92H44.08V11.6ZM44.08 17.88H46.34C46.66 17.88 47.0067 17.86 47.38 17.82C47.7533 17.7667 48.0933 17.6667 48.4 17.52C48.72 17.3733 48.98 17.16 49.18 16.88C49.3933 16.6 49.5 16.2267 49.5 15.76C49.5 15.0133 49.2467 14.4933 48.74 14.2C48.2333 13.9067 47.4667 13.76 46.44 13.76H44.08V17.88ZM61.1492 14.24C61.1492 13.9333 61.1026 13.64 61.0092 13.36C60.9292 13.08 60.7959 12.8333 60.6092 12.62C60.4226 12.4067 60.1826 12.24 59.8892 12.12C59.6092 11.9867 59.2759 11.92 58.8892 11.92C58.1692 11.92 57.5559 12.14 57.0492 12.58C56.5559 13.0067 56.2826 13.56 56.2292 14.24H61.1492ZM63.5492 15.32C63.5492 15.4267 63.5492 15.5333 63.5492 15.64C63.5492 15.7467 63.5426 15.8533 63.5292 15.96H56.2292C56.2559 16.3067 56.3426 16.6267 56.4892 16.92C56.6492 17.2 56.8559 17.4467 57.1092 17.66C57.3626 17.86 57.6492 18.02 57.9692 18.14C58.2892 18.26 58.6226 18.32 58.9692 18.32C59.5692 18.32 60.0759 18.2133 60.4892 18C60.9026 17.7733 61.2426 17.4667 61.5092 17.08L63.1092 18.36C62.1626 19.64 60.7892 20.28 58.9892 20.28C58.2426 20.28 57.5559 20.1667 56.9292 19.94C56.3026 19.7 55.7559 19.3667 55.2892 18.94C54.8359 18.5133 54.4759 17.9933 54.2092 17.38C53.9559 16.7533 53.8292 16.0467 53.8292 15.26C53.8292 14.4867 53.9559 13.7867 54.2092 13.16C54.4759 12.52 54.8359 11.98 55.2892 11.54C55.7426 11.0867 56.2759 10.74 56.8892 10.5C57.5159 10.2467 58.1892 10.12 58.9092 10.12C59.5759 10.12 60.1892 10.2333 60.7492 10.46C61.3226 10.6733 61.8159 11 62.2292 11.44C62.6426 11.8667 62.9626 12.4067 63.1892 13.06C63.4292 13.7 63.5492 14.4533 63.5492 15.32ZM71.2136 10.12C71.8403 10.12 72.3736 10.2333 72.8136 10.46C73.2669 10.6733 73.6336 10.96 73.9136 11.32C74.2069 11.68 74.4203 12.0933 74.5536 12.56C74.6869 13.0267 74.7536 13.5067 74.7536 14V20H72.3536V14.72C72.3536 14.44 72.3336 14.1533 72.2936 13.86C72.2536 13.5533 72.1669 13.28 72.0336 13.04C71.9136 12.7867 71.7336 12.58 71.4936 12.42C71.2669 12.26 70.9603 12.18 70.5736 12.18C70.1869 12.18 69.8536 12.2533 69.5736 12.4C69.2936 12.5467 69.0603 12.7467 68.8736 13C68.6869 13.24 68.5469 13.5133 68.4536 13.82C68.3603 14.1267 68.3136 14.44 68.3136 14.76V20H65.9136V4.88H68.3136V11.74H68.3536C68.4469 11.54 68.5803 11.3467 68.7536 11.16C68.9403 10.96 69.1536 10.7867 69.3936 10.64C69.6336 10.48 69.9069 10.3533 70.2136 10.26C70.5203 10.1667 70.8536 10.12 71.2136 10.12ZM83.5133 18.78H83.4533C83.2133 19.2067 82.8266 19.56 82.2933 19.84C81.7599 20.1067 81.1533 20.24 80.4733 20.24C80.0866 20.24 79.6799 20.1867 79.2533 20.08C78.8399 19.9867 78.4533 19.8267 78.0933 19.6C77.7466 19.36 77.4533 19.0533 77.2133 18.68C76.9866 18.2933 76.8733 17.82 76.8733 17.26C76.8733 16.54 77.0733 15.9667 77.4733 15.54C77.8866 15.1133 78.4133 14.7867 79.0533 14.56C79.6933 14.3333 80.3999 14.1867 81.1733 14.12C81.9599 14.04 82.7266 14 83.4733 14V13.76C83.4733 13.16 83.2533 12.72 82.8133 12.44C82.3866 12.1467 81.8733 12 81.2733 12C80.7666 12 80.2799 12.1067 79.8133 12.32C79.3466 12.5333 78.9599 12.7933 78.6533 13.1L77.4133 11.64C77.9599 11.1333 78.5866 10.7533 79.2933 10.5C80.0133 10.2467 80.7399 10.12 81.4733 10.12C82.3266 10.12 83.0266 10.24 83.5733 10.48C84.1333 10.72 84.5733 11.0333 84.8933 11.42C85.2133 11.8067 85.4333 12.24 85.5533 12.72C85.6866 13.2 85.7533 13.68 85.7533 14.16V20H83.5133V18.78ZM83.4733 15.62H82.9333C82.5466 15.62 82.1399 15.64 81.7133 15.68C81.2866 15.7067 80.8933 15.78 80.5333 15.9C80.1733 16.0067 79.8733 16.1667 79.6333 16.38C79.3933 16.58 79.2733 16.86 79.2733 17.22C79.2733 17.4467 79.3199 17.64 79.4133 17.8C79.5199 17.9467 79.6533 18.0667 79.8133 18.16C79.9733 18.2533 80.1533 18.32 80.3533 18.36C80.5533 18.4 80.7533 18.42 80.9533 18.42C81.7799 18.42 82.4066 18.2 82.8333 17.76C83.2599 17.32 83.4733 16.72 83.4733 15.96V15.62ZM88.5494 10.4H90.8294V11.94H90.8694C91.0827 11.46 91.4494 11.04 91.9694 10.68C92.5027 10.3067 93.1294 10.12 93.8494 10.12C94.476 10.12 95.0094 10.2333 95.4494 10.46C95.9027 10.6733 96.2694 10.96 96.5494 11.32C96.8427 11.68 97.056 12.0933 97.1894 12.56C97.3227 13.0267 97.3894 13.5067 97.3894 14V20H94.9894V14.68C94.9894 14.4 94.9694 14.1067 94.9294 13.8C94.8894 13.4933 94.8027 13.22 94.6694 12.98C94.536 12.7267 94.3494 12.52 94.1094 12.36C93.8827 12.2 93.576 12.12 93.1894 12.12C92.8027 12.12 92.4694 12.2 92.1894 12.36C91.9094 12.5067 91.676 12.7 91.4894 12.94C91.316 13.18 91.1827 13.46 91.0894 13.78C90.996 14.0867 90.9494 14.4 90.9494 14.72V20H88.5494V10.4ZM106.75 13.06C106.563 12.7933 106.283 12.5733 105.91 12.4C105.537 12.2133 105.157 12.12 104.77 12.12C104.33 12.12 103.943 12.2133 103.61 12.4C103.277 12.5733 102.997 12.8067 102.77 13.1C102.557 13.3933 102.397 13.7267 102.29 14.1C102.183 14.46 102.13 14.8267 102.13 15.2C102.13 15.5733 102.183 15.9467 102.29 16.32C102.41 16.68 102.583 17.0067 102.81 17.3C103.037 17.5933 103.317 17.8333 103.65 18.02C103.997 18.1933 104.397 18.28 104.85 18.28C105.223 18.28 105.597 18.2067 105.97 18.06C106.343 17.9133 106.643 17.7 106.87 17.42L108.37 18.94C107.97 19.3667 107.457 19.7 106.83 19.94C106.217 20.1667 105.55 20.28 104.83 20.28C104.123 20.28 103.45 20.1667 102.81 19.94C102.183 19.7133 101.63 19.38 101.15 18.94C100.683 18.5 100.31 17.9667 100.03 17.34C99.7633 16.7133 99.63 16 99.63 15.2C99.63 14.4267 99.7633 13.7267 100.03 13.1C100.31 12.4733 100.683 11.94 101.15 11.5C101.617 11.06 102.157 10.72 102.77 10.48C103.397 10.24 104.063 10.12 104.77 10.12C105.477 10.12 106.157 10.2533 106.81 10.52C107.477 10.7867 108.003 11.1533 108.39 11.62L106.75 13.06ZM116.716 14.24C116.716 13.9333 116.669 13.64 116.576 13.36C116.496 13.08 116.362 12.8333 116.176 12.62C115.989 12.4067 115.749 12.24 115.456 12.12C115.176 11.9867 114.842 11.92 114.456 11.92C113.736 11.92 113.122 12.14 112.616 12.58C112.122 13.0067 111.849 13.56 111.796 14.24H116.716ZM119.116 15.32C119.116 15.4267 119.116 15.5333 119.116 15.64C119.116 15.7467 119.109 15.8533 119.096 15.96H111.796C111.822 16.3067 111.909 16.6267 112.056 16.92C112.216 17.2 112.422 17.4467 112.676 17.66C112.929 17.86 113.216 18.02 113.536 18.14C113.856 18.26 114.189 18.32 114.536 18.32C115.136 18.32 115.642 18.2133 116.056 18C116.469 17.7733 116.809 17.4667 117.076 17.08L118.676 18.36C117.729 19.64 116.356 20.28 114.556 20.28C113.809 20.28 113.122 20.1667 112.496 19.94C111.869 19.7 111.322 19.3667 110.856 18.94C110.402 18.5133 110.042 17.9933 109.776 17.38C109.522 16.7533 109.396 16.0467 109.396 15.26C109.396 14.4867 109.522 13.7867 109.776 13.16C110.042 12.52 110.402 11.98 110.856 11.54C111.309 11.0867 111.842 10.74 112.456 10.5C113.082 10.2467 113.756 10.12 114.476 10.12C115.142 10.12 115.756 10.2333 116.316 10.46C116.889 10.6733 117.382 11 117.796 11.44C118.209 11.8667 118.529 12.4067 118.756 13.06C118.996 13.7 119.116 14.4533 119.116 15.32Z" fill="#242424"/>
<g clip-path="url(#clip0)">
<path d="M9.87381 13.2798C10.3719 13.0293 10.7484 12.7503 11.0064 12.4488C11.4654 11.9057 11.692 11.1857 11.692 10.2931C11.692 9.42451 11.4654 8.68195 11.0124 8.0594C10.2563 7.04531 8.97674 6.52627 7.16759 6.49927H0V21.13H6.68305C7.43611 21.13 8.13367 21.0655 8.77872 20.9335C9.42377 20.7999 9.98182 20.5554 10.4544 20.1984C10.8744 19.8879 11.2254 19.5023 11.5044 19.0478C11.9455 18.3607 12.166 17.5822 12.166 16.7151C12.166 15.875 11.9725 15.1595 11.5885 14.5714C11.1999 13.9834 10.6299 13.5528 9.87381 13.2798ZM2.95674 9.04048H6.18501C6.89457 9.04048 7.47961 9.11698 7.93865 9.26849C8.4697 9.48901 8.73522 9.93755 8.73522 10.6216C8.73522 11.2352 8.5327 11.6642 8.13217 11.9057C7.72863 12.1472 7.20509 12.2687 6.56304 12.2687H2.95674V9.04048ZM8.06166 18.3337C7.70463 18.5063 7.20209 18.5918 6.55854 18.5918H2.95674V14.6899H6.60804C7.24409 14.6944 7.73914 14.7784 8.09316 14.936C8.72322 15.221 9.03674 15.743 9.03674 16.5066C9.03674 17.4067 8.71272 18.0127 8.06166 18.3337Z" fill="black"/>
<path d="M21.6929 7.18188H15.3369V9.00303H21.6929V7.18188Z" fill="black"/>
<path d="M23.9015 14.369C23.7695 13.5215 23.4785 12.7759 23.0254 12.1323C22.5289 11.4033 21.8988 10.8692 21.1323 10.5317C20.3687 10.1927 19.5091 10.0232 18.5521 10.0247C16.9454 10.0247 15.6403 10.5272 14.6307 11.5248C13.6242 12.5254 13.1201 13.964 13.1201 15.8391C13.1201 17.8388 13.6767 19.2834 14.7958 20.17C15.9103 21.0581 17.1974 21.5006 18.6586 21.5006C20.4272 21.5006 21.8028 20.9741 22.7854 19.924C23.4139 19.2609 23.7695 18.6084 23.8475 17.9678H20.9192C20.7497 18.2843 20.5532 18.5319 20.3282 18.7119C19.9202 19.0419 19.3891 19.2069 18.7381 19.2069C18.1185 19.2069 17.5935 19.0704 17.1554 18.7989C16.4324 18.3638 16.0544 17.6018 16.0064 16.5172H23.9975C24.0095 15.5826 23.9795 14.8641 23.9015 14.369ZM16.0784 14.6495C16.1834 13.946 16.4384 13.3879 16.8434 12.9754C17.2484 12.5644 17.8215 12.3574 18.5551 12.3559C19.2316 12.3559 19.7972 12.5494 20.2577 12.9379C20.7122 13.3294 20.9688 13.898 21.0213 14.6495H16.0784Z" fill="black"/>
</g>
<defs>
<clipPath id="clip0">
<rect y="2" width="24" height="24" fill="white"/>
</clipPath>
</defs>
</svg>
