<svg width="111" height="27" viewBox="0 0 111 27" fill="none" xmlns="http://www.w3.org/2000/svg">
<path d="M41.56 5.84H46.58C47.5 5.84 48.4267 5.96 49.36 6.2C50.2933 6.44 51.1333 6.84 51.88 7.4C52.6267 7.94667 53.2333 8.67333 53.7 9.58C54.1667 10.4733 54.4 11.5867 54.4 12.92C54.4 14.16 54.1667 15.2267 53.7 16.12C53.2333 17.0133 52.6267 17.7467 51.88 18.32C51.1333 18.8933 50.2933 19.32 49.36 19.6C48.4267 19.8667 47.5 20 46.58 20H41.56V5.84ZM46.18 17.8C46.8333 17.8 47.4867 17.7267 48.14 17.58C48.7933 17.42 49.38 17.16 49.9 16.8C50.4333 16.4267 50.8667 15.9267 51.2 15.3C51.5333 14.6733 51.7 13.88 51.7 12.92C51.7 11.9067 51.5333 11.08 51.2 10.44C50.8667 9.8 50.4333 9.3 49.9 8.94C49.38 8.58 48.7933 8.33333 48.14 8.2C47.4867 8.06667 46.8333 8 46.18 8H44.08V17.8H46.18ZM56.7134 10.4H59.0134V12H59.0534C59.3201 11.44 59.6934 10.9867 60.1734 10.64C60.6534 10.2933 61.2134 10.12 61.8534 10.12C61.9468 10.12 62.0468 10.1267 62.1534 10.14C62.2601 10.14 62.3534 10.1533 62.4334 10.18V12.38C62.2734 12.34 62.1334 12.3133 62.0134 12.3C61.9068 12.2867 61.8001 12.28 61.6934 12.28C61.1468 12.28 60.7068 12.38 60.3734 12.58C60.0401 12.78 59.7801 13.02 59.5934 13.3C59.4068 13.58 59.2801 13.8667 59.2134 14.16C59.1468 14.4533 59.1134 14.6867 59.1134 14.86V20H56.7134V10.4ZM64.0386 10.4H66.4386V20H64.0386V10.4ZM63.6986 7.14C63.6986 6.75333 63.8386 6.42 64.1186 6.14C64.4119 5.84667 64.7786 5.7 65.2186 5.7C65.6586 5.7 66.0253 5.84 66.3186 6.12C66.6253 6.38667 66.7786 6.72667 66.7786 7.14C66.7786 7.55333 66.6253 7.9 66.3186 8.18C66.0253 8.44667 65.6586 8.58 65.2186 8.58C64.7786 8.58 64.4119 8.44 64.1186 8.16C63.8386 7.86667 63.6986 7.52667 63.6986 7.14ZM71.7902 4.88V11.62H71.8502C71.9702 11.46 72.1235 11.2933 72.3102 11.12C72.4968 10.9467 72.7168 10.7867 72.9702 10.64C73.2368 10.4933 73.5435 10.3733 73.8902 10.28C74.2368 10.1733 74.6302 10.12 75.0702 10.12C75.7502 10.12 76.3768 10.2533 76.9502 10.52C77.5235 10.7733 78.0168 11.1267 78.4302 11.58C78.8435 12.0333 79.1635 12.5667 79.3902 13.18C79.6168 13.7933 79.7302 14.4533 79.7302 15.16C79.7302 15.8667 79.6168 16.5333 79.3902 17.16C79.1768 17.7733 78.8635 18.3133 78.4502 18.78C78.0502 19.2333 77.5568 19.6 76.9702 19.88C76.3968 20.1467 75.7435 20.28 75.0102 20.28C74.3302 20.28 73.6902 20.1333 73.0902 19.84C72.5035 19.5467 72.0435 19.12 71.7102 18.56H71.6702V20H69.3902V4.88H71.7902ZM77.2902 15.16C77.2902 14.7867 77.2302 14.42 77.1102 14.06C77.0035 13.6867 76.8368 13.3533 76.6102 13.06C76.3835 12.7667 76.0968 12.5333 75.7502 12.36C75.4035 12.1733 74.9968 12.08 74.5302 12.08C74.0902 12.08 73.6968 12.1733 73.3502 12.36C73.0035 12.5467 72.7035 12.7867 72.4502 13.08C72.2102 13.3733 72.0235 13.7067 71.8902 14.08C71.7702 14.4533 71.7102 14.8267 71.7102 15.2C71.7102 15.5733 71.7702 15.9467 71.8902 16.32C72.0235 16.68 72.2102 17.0067 72.4502 17.3C72.7035 17.5933 73.0035 17.8333 73.3502 18.02C73.6968 18.1933 74.0902 18.28 74.5302 18.28C74.9968 18.28 75.4035 18.1867 75.7502 18C76.0968 17.8133 76.3835 17.5733 76.6102 17.28C76.8368 16.9867 77.0035 16.6533 77.1102 16.28C77.2302 15.9067 77.2902 15.5333 77.2902 15.16ZM84.4855 4.88V11.62H84.5455C84.6655 11.46 84.8188 11.2933 85.0055 11.12C85.1921 10.9467 85.4121 10.7867 85.6655 10.64C85.9321 10.4933 86.2388 10.3733 86.5855 10.28C86.9321 10.1733 87.3255 10.12 87.7655 10.12C88.4455 10.12 89.0721 10.2533 89.6455 10.52C90.2188 10.7733 90.7121 11.1267 91.1255 11.58C91.5388 12.0333 91.8588 12.5667 92.0855 13.18C92.3121 13.7933 92.4255 14.4533 92.4255 15.16C92.4255 15.8667 92.3121 16.5333 92.0855 17.16C91.8721 17.7733 91.5588 18.3133 91.1455 18.78C90.7455 19.2333 90.2521 19.6 89.6655 19.88C89.0921 20.1467 88.4388 20.28 87.7055 20.28C87.0255 20.28 86.3855 20.1333 85.7855 19.84C85.1988 19.5467 84.7388 19.12 84.4055 18.56H84.3655V20H82.0855V4.88H84.4855ZM89.9855 15.16C89.9855 14.7867 89.9255 14.42 89.8055 14.06C89.6988 13.6867 89.5321 13.3533 89.3055 13.06C89.0788 12.7667 88.7921 12.5333 88.4455 12.36C88.0988 12.1733 87.6921 12.08 87.2255 12.08C86.7855 12.08 86.3921 12.1733 86.0455 12.36C85.6988 12.5467 85.3988 12.7867 85.1455 13.08C84.9055 13.3733 84.7188 13.7067 84.5855 14.08C84.4655 14.4533 84.4055 14.8267 84.4055 15.2C84.4055 15.5733 84.4655 15.9467 84.5855 16.32C84.7188 16.68 84.9055 17.0067 85.1455 17.3C85.3988 17.5933 85.6988 17.8333 86.0455 18.02C86.3921 18.1933 86.7855 18.28 87.2255 18.28C87.6921 18.28 88.0988 18.1867 88.4455 18C88.7921 17.8133 89.0788 17.5733 89.3055 17.28C89.5321 16.9867 89.6988 16.6533 89.8055 16.28C89.9255 15.9067 89.9855 15.5333 89.9855 15.16ZM94.7808 4.88H97.1808V20H94.7808V4.88ZM106.852 14.24C106.852 13.9333 106.806 13.64 106.712 13.36C106.632 13.08 106.499 12.8333 106.312 12.62C106.126 12.4067 105.886 12.24 105.592 12.12C105.312 11.9867 104.979 11.92 104.592 11.92C103.872 11.92 103.259 12.14 102.752 12.58C102.259 13.0067 101.986 13.56 101.932 14.24H106.852ZM109.252 15.32C109.252 15.4267 109.252 15.5333 109.252 15.64C109.252 15.7467 109.246 15.8533 109.232 15.96H101.932C101.959 16.3067 102.046 16.6267 102.192 16.92C102.352 17.2 102.559 17.4467 102.812 17.66C103.066 17.86 103.352 18.02 103.672 18.14C103.992 18.26 104.326 18.32 104.672 18.32C105.272 18.32 105.779 18.2133 106.192 18C106.606 17.7733 106.946 17.4667 107.212 17.08L108.812 18.36C107.866 19.64 106.492 20.28 104.692 20.28C103.946 20.28 103.259 20.1667 102.632 19.94C102.006 19.7 101.459 19.3667 100.992 18.94C100.539 18.5133 100.179 17.9933 99.9123 17.38C99.659 16.7533 99.5323 16.0467 99.5323 15.26C99.5323 14.4867 99.659 13.7867 99.9123 13.16C100.179 12.52 100.539 11.98 100.992 11.54C101.446 11.0867 101.979 10.74 102.592 10.5C103.219 10.2467 103.892 10.12 104.612 10.12C105.279 10.12 105.892 10.2333 106.452 10.46C107.026 10.6733 107.519 11 107.932 11.44C108.346 11.8667 108.666 12.4067 108.892 13.06C109.132 13.7 109.252 14.4533 109.252 15.32Z" fill="#242424"/>
<g clip-path="url(#clip0)">
<path d="M19.4531 4.66235C19.5153 4.71171 19.5739 4.76782 19.6355 4.81863L19.6359 4.81699C19.5797 4.76079 19.5234 4.70454 19.4531 4.66235Z" fill="#FF7CB9"/>
<path d="M23.9998 14.2531C23.9857 14.7452 23.9436 15.2234 23.8731 15.7015L20.395 19.2874L16.8654 24.9124C16.4295 25.1093 15.9654 25.2921 15.4873 25.4328L11.9998 22.1421L11.2404 21.4249L5.81226 24.2233C5.30601 23.914 4.81382 23.5765 4.36382 23.1968L3.02788 16.8265L0.0419922 12.889C0.0981953 12.4109 0.168508 11.9468 0.266945 11.4827L5.2919 8.02339L6.36065 3.46714C6.79659 3.22803 7.26065 3.01714 7.72476 2.84839L11.9998 4.14214L13.6873 4.66245L19.6356 4.81714C20.0434 5.15464 20.4513 5.52026 20.8029 5.92812L20.7466 10.9625L23.9998 14.2531Z" fill="#FA5E97"/>
<path d="M24 14.2531C23.9859 14.7452 23.9438 15.2234 23.8734 15.7015L20.3953 19.2874L16.8657 24.9125C16.4297 25.1093 15.9657 25.2921 15.4875 25.4328L12 22.1421V4.14209L13.6875 4.6624L19.6359 4.81709C20.0437 5.15459 20.4516 5.52022 20.8031 5.92807L20.7468 10.9624L24 14.2531Z" fill="#D94F88"/>
<path d="M8.25884 11.2717C9.41187 11.0467 10.537 10.7374 11.6056 10.3999C10.1854 7.79824 8.42759 5.44981 6.36035 3.46704C3.3229 5.09824 1.01187 8.00923 0.266602 11.4826C2.50259 11.9326 5.26352 11.8764 8.25884 11.2717Z" fill="#FF7CB9"/>
<path d="M19.6365 4.81714L19.4396 5.59058C19.1303 6.82808 16.5146 8.59995 13.0834 9.87969L12.9287 9.93589C12.6334 9.38745 12.324 8.83897 12.0006 8.31866C10.7912 6.32183 9.34273 4.47964 7.72559 2.84844C9.04746 2.32812 10.4959 2 12.0005 2C14.6864 2 17.1896 2.94688 19.1865 4.45152C19.3411 4.56402 19.4959 4.67656 19.6365 4.81714Z" fill="#FF7CB9"/>
<path d="M13.4766 14.5767C12.9703 14.7595 12.4782 14.9564 12 15.1814C7.92183 17.0095 4.88438 20.047 4.4062 22.9439C4.39223 23.0283 4.37812 23.1127 4.36406 23.197C1.73438 21.0032 0 17.6986 0 14.0001C0 13.6204 0.0140625 13.2548 0.0422344 12.8892C1.15312 13.1001 2.325 13.1845 3.42192 13.1845C5.33442 13.1845 7.14844 12.9314 8.54062 12.6501C9.73598 12.4111 10.8891 12.1017 12 11.7501C12.0844 11.7221 12.1688 11.6939 12.2532 11.6658C12.7031 12.608 13.1109 13.5783 13.4766 14.5767Z" fill="#FF7CB9"/>
<path d="M15.4875 25.4329C14.3906 25.7704 13.2094 26.0001 12 26.0001C9.73593 26.0001 7.61249 25.3204 5.81244 24.2235C5.74213 23.886 5.74213 23.5344 5.79847 23.1688C6.164 20.9329 8.69535 18.4016 12 16.7422C12.6187 16.4328 13.2657 16.1375 13.9406 15.8984C14.8969 18.9079 15.4312 22.1281 15.4875 25.4329Z" fill="#FF7CB9"/>
<path d="M23.8736 15.7014C23.283 19.8218 20.5502 23.267 16.8659 24.9124C16.7674 21.6499 16.2049 18.4718 15.2627 15.4764C18.4127 14.6046 21.3987 14.703 23.8736 15.7014Z" fill="#FF637B"/>
<path d="M24.0002 14.0001V14.2532C21.3143 13.2547 18.1314 13.2126 14.8127 14.1547C14.4471 13.1423 14.0252 12.1579 13.5752 11.2017C15.8814 10.3298 20.1987 8.33286 20.8033 5.92822C22.7581 8.05157 24.0002 10.8922 24.0002 14.0001Z" fill="#FF637B"/>
<path d="M13.4766 14.5765C12.9703 14.7593 12.4782 14.9562 12 15.1812V11.7499C12.0844 11.7218 12.1687 11.6937 12.2531 11.6655C12.7031 12.6078 13.1109 13.5781 13.4766 14.5765Z" fill="#FA5E97"/>
<path d="M13.9406 15.8984C14.8969 18.9078 15.4312 22.1281 15.4875 25.4329C14.3906 25.7704 13.2094 26.0001 12 26.0001V16.7422C12.6187 16.4328 13.2657 16.1375 13.9406 15.8984Z" fill="#FA5E97"/>
<path d="M12.9281 9.93594C12.6328 9.3875 12.3234 8.83902 12 8.3187V2C14.6859 2 17.1891 2.94688 19.1859 4.45152C19.3406 4.56406 19.4954 4.67656 19.6359 4.81714L19.4391 5.59058C19.1297 6.82808 16.5141 8.59995 13.0829 9.87969L12.9281 9.93594Z" fill="#FA5E97"/>
<path d="M23.8736 15.7014C23.283 19.8218 20.5502 23.267 16.8659 24.9124C16.7674 21.6499 16.2049 18.4718 15.2627 15.4764C18.4127 14.6046 21.3987 14.703 23.8736 15.7014Z" fill="#FA5E97"/>
<path d="M24.0002 14.0001V14.2532C21.3143 13.2547 18.1314 13.2126 14.8127 14.1547C14.4471 13.1423 14.0252 12.1579 13.5752 11.2017C15.8814 10.3298 20.1987 8.33286 20.8033 5.92822C22.7581 8.05157 24.0002 10.8922 24.0002 14.0001Z" fill="#FA5E97"/>
</g>
<defs>
<clipPath id="clip0">
<rect y="2" width="24" height="24" fill="white"/>
</clipPath>
</defs>
</svg>
