<svg width="45" height="38" viewBox="0 0 45 38" fill="none" xmlns="http://www.w3.org/2000/svg">
<path d="M42.4706 15.1595L42.5408 15.1749H12.4288L21.8949 5.68794C22.3585 5.22477 22.6127 4.59733 22.6127 3.93879C22.6127 3.28025 22.3585 2.6572 21.8949 2.19293L20.422 0.71927C19.9588 0.256098 19.3416 0 18.6835 0C18.0249 0 17.4074 0.254269 16.9442 0.717441L0.717451 16.9427C0.252449 17.4077 -0.00181947 18.0271 9.80174e-06 18.686C-0.00181947 19.3486 0.252449 19.9683 0.717451 20.4326L16.9442 36.6594C17.4074 37.1222 18.0246 37.3768 18.6835 37.3768C19.3416 37.3768 19.9588 37.1218 20.422 36.6594L21.8949 35.1857C22.3585 34.7233 22.6127 34.1057 22.6127 33.4472C22.6127 32.789 22.3585 32.204 21.8949 31.7412L12.322 22.2012H42.5043C43.8605 22.2012 45.0001 21.0322 45.0001 19.6768V17.5925C45.0001 16.237 43.8268 15.1595 42.4706 15.1595Z" fill="#999999"/>
</svg>
