<svg width="119" height="27" viewBox="0 0 119 27" fill="none" xmlns="http://www.w3.org/2000/svg">
<path d="M41.56 5.84H44.08V17.76H50.1V20H41.56V5.84ZM51.6948 10.4H54.0948V20H51.6948V10.4ZM51.3548 7.14C51.3548 6.75333 51.4948 6.42 51.7748 6.14C52.0682 5.84667 52.4348 5.7 52.8748 5.7C53.3148 5.7 53.6815 5.84 53.9748 6.12C54.2815 6.38667 54.4348 6.72667 54.4348 7.14C54.4348 7.55333 54.2815 7.9 53.9748 8.18C53.6815 8.44667 53.3148 8.58 52.8748 8.58C52.4348 8.58 52.0682 8.44 51.7748 8.16C51.4948 7.86667 51.3548 7.52667 51.3548 7.14ZM57.0064 10.4H59.2864V11.94H59.3264C59.5397 11.46 59.9064 11.04 60.4264 10.68C60.9597 10.3067 61.5864 10.12 62.3064 10.12C62.9331 10.12 63.4664 10.2333 63.9064 10.46C64.3597 10.6733 64.7264 10.96 65.0064 11.32C65.2997 11.68 65.5131 12.0933 65.6464 12.56C65.7797 13.0267 65.8464 13.5067 65.8464 14V20H63.4464V14.68C63.4464 14.4 63.4264 14.1067 63.3864 13.8C63.3464 13.4933 63.2597 13.22 63.1264 12.98C62.9931 12.7267 62.8064 12.52 62.5664 12.36C62.3397 12.2 62.0331 12.12 61.6464 12.12C61.2597 12.12 60.9264 12.2 60.6464 12.36C60.3664 12.5067 60.1331 12.7 59.9464 12.94C59.7731 13.18 59.6397 13.46 59.5464 13.78C59.4531 14.0867 59.4064 14.4 59.4064 14.72V20H57.0064V10.4ZM68.687 4.88H71.087V14.44H71.147L74.787 10.4H77.867L73.707 14.74L78.127 20H74.947L71.147 15.08H71.087V20H68.687V4.88ZM85.9148 14.24C85.9148 13.9333 85.8682 13.64 85.7748 13.36C85.6948 13.08 85.5615 12.8333 85.3748 12.62C85.1882 12.4067 84.9482 12.24 84.6548 12.12C84.3748 11.9867 84.0415 11.92 83.6548 11.92C82.9348 11.92 82.3215 12.14 81.8148 12.58C81.3215 13.0067 81.0482 13.56 80.9948 14.24H85.9148ZM88.3148 15.32C88.3148 15.4267 88.3148 15.5333 88.3148 15.64C88.3148 15.7467 88.3082 15.8533 88.2948 15.96H80.9948C81.0215 16.3067 81.1082 16.6267 81.2548 16.92C81.4148 17.2 81.6215 17.4467 81.8748 17.66C82.1282 17.86 82.4148 18.02 82.7348 18.14C83.0548 18.26 83.3882 18.32 83.7348 18.32C84.3348 18.32 84.8415 18.2133 85.2548 18C85.6682 17.7733 86.0082 17.4667 86.2748 17.08L87.8748 18.36C86.9282 19.64 85.5548 20.28 83.7548 20.28C83.0082 20.28 82.3215 20.1667 81.6948 19.94C81.0682 19.7 80.5215 19.3667 80.0548 18.94C79.6015 18.5133 79.2415 17.9933 78.9748 17.38C78.7215 16.7533 78.5948 16.0467 78.5948 15.26C78.5948 14.4867 78.7215 13.7867 78.9748 13.16C79.2415 12.52 79.6015 11.98 80.0548 11.54C80.5082 11.0867 81.0415 10.74 81.6548 10.5C82.2815 10.2467 82.9548 10.12 83.6748 10.12C84.3415 10.12 84.9548 10.2333 85.5148 10.46C86.0882 10.6733 86.5815 11 86.9948 11.44C87.4082 11.8667 87.7282 12.4067 87.9548 13.06C88.1948 13.7 88.3148 14.4533 88.3148 15.32ZM100.399 20H98.1192V18.56H98.0792C97.7459 19.12 97.2792 19.5467 96.6792 19.84C96.0926 20.1333 95.4592 20.28 94.7792 20.28C94.0459 20.28 93.3859 20.1467 92.7992 19.88C92.2259 19.6 91.7326 19.2333 91.3192 18.78C90.9192 18.3133 90.6059 17.7733 90.3792 17.16C90.1659 16.5333 90.0592 15.8667 90.0592 15.16C90.0592 14.4533 90.1726 13.7933 90.3992 13.18C90.6259 12.5667 90.9459 12.0333 91.3592 11.58C91.7726 11.1267 92.2659 10.7733 92.8392 10.52C93.4126 10.2533 94.0392 10.12 94.7192 10.12C95.1592 10.12 95.5526 10.1733 95.8992 10.28C96.2459 10.3733 96.5459 10.4933 96.7992 10.64C97.0659 10.7867 97.2926 10.9467 97.4792 11.12C97.6659 11.2933 97.8192 11.46 97.9392 11.62H97.9992V4.88H100.399V20ZM92.4992 15.16C92.4992 15.5333 92.5526 15.9067 92.6592 16.28C92.7792 16.6533 92.9526 16.9867 93.1792 17.28C93.4059 17.5733 93.6926 17.8133 94.0392 18C94.3859 18.1867 94.7926 18.28 95.2592 18.28C95.6992 18.28 96.0926 18.1933 96.4392 18.02C96.7859 17.8333 97.0792 17.5933 97.3192 17.3C97.5726 17.0067 97.7592 16.68 97.8792 16.32C98.0126 15.9467 98.0792 15.5733 98.0792 15.2C98.0792 14.8267 98.0126 14.4533 97.8792 14.08C97.7592 13.7067 97.5726 13.3733 97.3192 13.08C97.0792 12.7867 96.7859 12.5467 96.4392 12.36C96.0926 12.1733 95.6992 12.08 95.2592 12.08C94.7926 12.08 94.3859 12.1733 94.0392 12.36C93.6926 12.5333 93.4059 12.7667 93.1792 13.06C92.9526 13.3533 92.7792 13.6867 92.6592 14.06C92.5526 14.42 92.4992 14.7867 92.4992 15.16ZM103.355 10.4H105.755V20H103.355V10.4ZM103.015 7.14C103.015 6.75333 103.155 6.42 103.435 6.14C103.728 5.84667 104.095 5.7 104.535 5.7C104.975 5.7 105.342 5.84 105.635 6.12C105.942 6.38667 106.095 6.72667 106.095 7.14C106.095 7.55333 105.942 7.9 105.635 8.18C105.342 8.44667 104.975 8.58 104.535 8.58C104.095 8.58 103.728 8.44 103.435 8.16C103.155 7.86667 103.015 7.52667 103.015 7.14ZM108.667 10.4H110.947V11.94H110.987C111.2 11.46 111.567 11.04 112.087 10.68C112.62 10.3067 113.247 10.12 113.967 10.12C114.593 10.12 115.127 10.2333 115.567 10.46C116.02 10.6733 116.387 10.96 116.667 11.32C116.96 11.68 117.173 12.0933 117.307 12.56C117.44 13.0267 117.507 13.5067 117.507 14V20H115.107V14.68C115.107 14.4 115.087 14.1067 115.047 13.8C115.007 13.4933 114.92 13.22 114.787 12.98C114.653 12.7267 114.467 12.52 114.227 12.36C114 12.2 113.693 12.12 113.307 12.12C112.92 12.12 112.587 12.2 112.307 12.36C112.027 12.5067 111.793 12.7 111.607 12.94C111.433 13.18 111.3 13.46 111.207 13.78C111.113 14.0867 111.067 14.4 111.067 14.72V20H108.667V10.4Z" fill="#242424"/>
<path d="M23.9943 25V24.999H24.0003V16.197C24.0003 11.891 23.0733 8.57397 18.0393 8.57397C15.6193 8.57397 13.9953 9.90198 13.3323 11.161H13.2623V8.97597H8.48926V24.999H13.4593V17.065C13.4593 14.976 13.8553 12.956 16.4423 12.956C18.9913 12.956 19.0293 15.34 19.0293 17.199V25H23.9943Z" fill="#0077B5"/>
<path d="M0.395508 8.97705H5.37151V25H0.395508V8.97705Z" fill="#0077B5"/>
<path d="M2.882 1C1.291 1 0 2.291 0 3.882C0 5.473 1.291 6.791 2.882 6.791C4.473 6.791 5.764 5.473 5.764 3.882C5.763 2.291 4.472 1 2.882 1V1Z" fill="#0077B5"/>
</svg>
