<svg width="163" height="40" viewBox="0 0 163 40" fill="none" xmlns="http://www.w3.org/2000/svg">
<path d="M51.61 19.61C51.61 16.28 53.842 14.588 56.218 14.588C58.594 14.588 60.826 16.28 60.826 19.61C60.826 22.94 58.594 24.65 56.218 24.65C53.842 24.65 51.61 22.94 51.61 19.61ZM49.81 19.61C49.81 23.876 53.014 26.27 56.218 26.27C59.422 26.27 62.626 23.876 62.626 19.61C62.626 15.344 59.422 12.968 56.218 12.968C53.014 12.968 49.81 15.344 49.81 19.61ZM69.6776 17.252C69.5876 17.234 69.3536 17.198 69.1196 17.198C68.2376 17.198 67.1576 17.522 66.5276 18.854V17.342H64.8716V26H66.5636V21.662C66.5636 19.754 67.5176 18.998 68.9396 18.998C69.1736 18.998 69.4256 19.016 69.6776 19.052V17.252ZM72.4911 20.78C72.5631 19.664 73.4271 18.566 74.8491 18.566C76.3791 18.566 77.1891 19.538 77.2251 20.78H72.4911ZM77.4771 23.03C77.1531 24.002 76.4511 24.776 75.0471 24.776C73.5891 24.776 72.4731 23.696 72.4371 22.148H78.9531C78.9711 22.04 78.9891 21.824 78.9891 21.608C78.9891 18.908 77.4951 17.072 74.8311 17.072C72.6531 17.072 70.6911 18.926 70.6911 21.644C70.6911 24.578 72.7251 26.27 75.0471 26.27C77.0631 26.27 78.4491 25.064 78.9351 23.534L77.4771 23.03ZM87.377 26V24.47H82.535L87.287 18.818V17.342H80.501V18.872H85.181L80.429 24.524V26H87.377ZM91.2078 26V17.342H89.5338V26H91.2078ZM89.1558 14.066C89.1558 14.732 89.6958 15.272 90.3618 15.272C91.0458 15.272 91.5858 14.732 91.5858 14.066C91.5858 13.382 91.0458 12.842 90.3618 12.842C89.6958 12.842 89.1558 13.382 89.1558 14.066ZM99.7565 19.61C99.7565 16.28 101.988 14.588 104.364 14.588C106.74 14.588 108.972 16.28 108.972 19.61C108.972 22.94 106.74 24.65 104.364 24.65C101.988 24.65 99.7565 22.94 99.7565 19.61ZM97.9565 19.61C97.9565 23.876 101.16 26.27 104.364 26.27C107.568 26.27 110.772 23.876 110.772 19.61C110.772 15.344 107.568 12.968 104.364 12.968C101.16 12.968 97.9565 15.344 97.9565 19.61ZM114.692 26V20.78C114.692 19.484 115.502 18.584 116.708 18.584C118.004 18.584 118.544 19.448 118.544 20.564V26H120.236V20.762C120.236 19.52 121.046 18.584 122.234 18.584C123.512 18.584 124.07 19.43 124.07 20.564V26H125.744V20.384C125.744 18.116 124.268 17.09 122.756 17.09C121.658 17.09 120.542 17.486 119.858 18.728C119.39 17.612 118.346 17.09 117.266 17.09C116.258 17.09 115.178 17.54 114.638 18.494V17.342H113.018V26H114.692ZM132.16 24.758C130.72 24.758 129.46 23.678 129.46 21.662C129.46 19.664 130.72 18.584 132.16 18.584C133.6 18.584 134.86 19.664 134.86 21.662C134.86 23.678 133.6 24.758 132.16 24.758ZM132.16 17.072C129.568 17.072 127.732 19.034 127.732 21.662C127.732 24.308 129.568 26.27 132.16 26.27C134.752 26.27 136.588 24.308 136.588 21.662C136.588 19.034 134.752 17.072 132.16 17.072ZM146.511 17.342H144.171L140.427 21.176V12.968H138.753V26H140.427V23.39L141.633 22.184L144.459 26H146.583L142.821 20.996L146.511 17.342ZM149.884 26V17.342H148.21V26H149.884ZM147.832 14.066C147.832 14.732 148.372 15.272 149.038 15.272C149.722 15.272 150.262 14.732 150.262 14.066C150.262 13.382 149.722 12.842 149.038 12.842C148.372 12.842 147.832 13.382 147.832 14.066ZM155.03 14.606H153.482V16.01C153.482 16.766 153.086 17.342 152.15 17.342H151.682V18.872H153.338V23.624C153.338 25.19 154.274 26.09 155.75 26.09C156.326 26.09 156.758 25.982 156.902 25.928V24.488C156.758 24.524 156.452 24.56 156.236 24.56C155.354 24.56 155.03 24.164 155.03 23.372V18.872H156.902V17.342H155.03V14.606ZM160.835 26V17.342H159.161V26H160.835ZM158.783 14.066C158.783 14.732 159.323 15.272 159.989 15.272C160.673 15.272 161.213 14.732 161.213 14.066C161.213 13.382 160.673 12.842 159.989 12.842C159.323 12.842 158.783 13.382 158.783 14.066Z" fill="#242424"/>
<path d="M19.072 26.176L13.152 9.312H8.32L16.704 32H21.248L29.664 9.312H24.992L19.072 26.176Z" fill="black"/>
<path d="M9.344 28.608C7.264 28.608 5.344 27.072 5.344 24.128C5.344 21.152 7.264 19.648 9.344 19.648C11.424 19.648 13.344 21.152 13.344 24.128C13.344 27.104 11.424 28.608 9.344 28.608ZM9.344 15.776C4.64 15.776 1.088 19.264 1.088 24.128C1.088 28.96 4.64 32.48 9.344 32.48C14.048 32.48 17.6 28.96 17.6 24.128C17.6 19.264 14.048 15.776 9.344 15.776Z" fill="black"/>
<path d="M29.344 28.608C27.264 28.608 25.344 27.072 25.344 24.128C25.344 21.152 27.264 19.648 29.344 19.648C31.424 19.648 33.344 21.152 33.344 24.128C33.344 27.104 31.424 28.608 29.344 28.608ZM29.344 15.776C24.64 15.776 21.088 19.264 21.088 24.128C21.088 28.96 24.64 32.48 29.344 32.48C34.048 32.48 37.6 28.96 37.6 24.128C37.6 19.264 34.048 15.776 29.344 15.776Z" fill="black"/>
</svg>
