<svg width="103" height="27" viewBox="0 0 103 27" fill="none" xmlns="http://www.w3.org/2000/svg">
<path d="M44.42 8.04H40.08V5.84H51.28V8.04H46.94V20H44.42V8.04ZM49.5331 10.4H52.1331L54.1331 17.28H54.1731L56.2331 10.4H58.7931L60.8731 17.28H60.9131L62.9531 10.4H65.4531L62.1331 20H59.6931L57.5131 13.28H57.4731L55.3131 20H52.8731L49.5331 10.4ZM67.0073 10.4H69.4073V20H67.0073V10.4ZM66.6673 7.14C66.6673 6.75333 66.8073 6.42 67.0873 6.14C67.3807 5.84667 67.7473 5.7 68.1873 5.7C68.6273 5.7 68.994 5.84 69.2873 6.12C69.594 6.38667 69.7473 6.72667 69.7473 7.14C69.7473 7.55333 69.594 7.9 69.2873 8.18C68.994 8.44667 68.6273 8.58 68.1873 8.58C67.7473 8.58 67.3807 8.44 67.0873 8.16C66.8073 7.86667 66.6673 7.52667 66.6673 7.14ZM70.9389 12.32V10.4H72.6189V7.62H74.9789V10.4H77.3789V12.32H74.9789V16.78C74.9789 17.2067 75.0522 17.56 75.1989 17.84C75.3589 18.12 75.7056 18.26 76.2389 18.26C76.3989 18.26 76.5722 18.2467 76.7589 18.22C76.9456 18.18 77.1122 18.1267 77.2589 18.06L77.3389 19.94C77.1256 20.02 76.8722 20.08 76.5789 20.12C76.2856 20.1733 76.0056 20.2 75.7389 20.2C75.0989 20.2 74.5789 20.1133 74.1789 19.94C73.7789 19.7533 73.4589 19.5067 73.2189 19.2C72.9922 18.88 72.8322 18.52 72.7389 18.12C72.6589 17.7067 72.6189 17.2667 72.6189 16.8V12.32H70.9389ZM77.4428 12.32V10.4H79.1228V7.62H81.4828V10.4H83.8828V12.32H81.4828V16.78C81.4828 17.2067 81.5561 17.56 81.7028 17.84C81.8628 18.12 82.2095 18.26 82.7428 18.26C82.9028 18.26 83.0761 18.2467 83.2628 18.22C83.4495 18.18 83.6161 18.1267 83.7628 18.06L83.8428 19.94C83.6295 20.02 83.3761 20.08 83.0828 20.12C82.7895 20.1733 82.5095 20.2 82.2428 20.2C81.6028 20.2 81.0828 20.1133 80.6828 19.94C80.2828 19.7533 79.9628 19.5067 79.7228 19.2C79.4961 18.88 79.3361 18.52 79.2428 18.12C79.1628 17.7067 79.1228 17.2667 79.1228 16.8V12.32H77.4428ZM92.3797 14.24C92.3797 13.9333 92.333 13.64 92.2397 13.36C92.1597 13.08 92.0264 12.8333 91.8397 12.62C91.653 12.4067 91.413 12.24 91.1197 12.12C90.8397 11.9867 90.5064 11.92 90.1197 11.92C89.3997 11.92 88.7864 12.14 88.2797 12.58C87.7864 13.0067 87.513 13.56 87.4597 14.24H92.3797ZM94.7797 15.32C94.7797 15.4267 94.7797 15.5333 94.7797 15.64C94.7797 15.7467 94.773 15.8533 94.7597 15.96H87.4597C87.4864 16.3067 87.573 16.6267 87.7197 16.92C87.8797 17.2 88.0864 17.4467 88.3397 17.66C88.593 17.86 88.8797 18.02 89.1997 18.14C89.5197 18.26 89.853 18.32 90.1997 18.32C90.7997 18.32 91.3064 18.2133 91.7197 18C92.133 17.7733 92.473 17.4667 92.7397 17.08L94.3397 18.36C93.393 19.64 92.0197 20.28 90.2197 20.28C89.473 20.28 88.7864 20.1667 88.1597 19.94C87.533 19.7 86.9864 19.3667 86.5197 18.94C86.0664 18.5133 85.7064 17.9933 85.4397 17.38C85.1864 16.7533 85.0597 16.0467 85.0597 15.26C85.0597 14.4867 85.1864 13.7867 85.4397 13.16C85.7064 12.52 86.0664 11.98 86.5197 11.54C86.973 11.0867 87.5064 10.74 88.1197 10.5C88.7464 10.2467 89.4197 10.12 90.1397 10.12C90.8064 10.12 91.4197 10.2333 91.9797 10.46C92.553 10.6733 93.0464 11 93.4597 11.44C93.873 11.8667 94.193 12.4067 94.4197 13.06C94.6597 13.7 94.7797 14.4533 94.7797 15.32ZM97.1041 10.4H99.4041V12H99.4441C99.7107 11.44 100.084 10.9867 100.564 10.64C101.044 10.2933 101.604 10.12 102.244 10.12C102.337 10.12 102.437 10.1267 102.544 10.14C102.651 10.14 102.744 10.1533 102.824 10.18V12.38C102.664 12.34 102.524 12.3133 102.404 12.3C102.297 12.2867 102.191 12.28 102.084 12.28C101.537 12.28 101.097 12.38 100.764 12.58C100.431 12.78 100.171 13.02 99.9841 13.3C99.7974 13.58 99.6707 13.8667 99.6041 14.16C99.5374 14.4533 99.5041 14.6867 99.5041 14.86V20H97.1041V10.4Z" fill="#242424"/>
<g clip-path="url(#clip0)">
<path d="M24 5.5585C23.1075 5.95 22.1565 6.2095 21.165 6.3355C22.185 5.7265 22.9635 4.7695 23.3295 3.616C22.3785 4.183 21.3285 4.5835 20.2095 4.807C19.3065 3.8455 18.0195 3.25 16.6155 3.25C13.8915 3.25 11.6985 5.461 11.6985 8.1715C11.6985 8.5615 11.7315 8.9365 11.8125 9.2935C7.722 9.094 4.1025 7.1335 1.671 4.147C1.2465 4.8835 0.9975 5.7265 0.9975 6.634C0.9975 8.338 1.875 9.8485 3.183 10.723C2.3925 10.708 1.617 10.4785 0.96 10.117C0.96 10.132 0.96 10.1515 0.96 10.171C0.96 12.562 2.6655 14.548 4.902 15.0055C4.5015 15.115 4.065 15.1675 3.612 15.1675C3.297 15.1675 2.979 15.1495 2.6805 15.0835C3.318 17.032 5.127 18.4645 7.278 18.511C5.604 19.8205 3.4785 20.6095 1.1775 20.6095C0.774 20.6095 0.387 20.5915 0 20.542C2.1795 21.9475 4.7625 22.75 7.548 22.75C16.602 22.75 21.552 15.25 21.552 8.749C21.552 8.5315 21.5445 8.3215 21.534 8.113C22.5105 7.42 23.331 6.5545 24 5.5585Z" fill="#03A9F4"/>
</g>
<defs>
<clipPath id="clip0">
<rect y="1" width="24" height="24" fill="white"/>
</clipPath>
</defs>
</svg>
