<svg width="45" height="38" viewBox="0 0 45 38" fill="none" xmlns="http://www.w3.org/2000/svg">
<path d="M2.5294 22.2174L2.45915 22.202L32.5712 22.202L23.1051 31.689C22.6415 32.1522 22.3873 32.7796 22.3873 33.4382C22.3873 34.0967 22.6415 34.7198 23.1051 35.184L24.578 36.6577C25.0412 37.1209 25.6584 37.377 26.3165 37.377C26.9751 37.377 27.5926 37.1227 28.0558 36.6595L44.2825 20.4342C44.7476 19.9692 45.0018 19.3498 45 18.6909C45.0018 18.0284 44.7476 17.4086 44.2825 16.9443L28.0558 0.717594C27.5926 0.254788 26.9754 0.000156403 26.3165 0.000156403C25.6584 0.000156403 25.0412 0.255154 24.578 0.717594L23.1051 2.19126C22.6415 2.6537 22.3873 3.27126 22.3873 3.9298C22.3873 4.58797 22.6415 5.17297 23.1051 5.63578L32.678 15.1758L2.49574 15.1758C1.13952 15.1758 -0.00012207 16.3447 -0.00012207 17.7002V19.7845C-0.00012207 21.14 1.17317 22.2174 2.5294 22.2174Z" fill="#3477DC"/>
</svg>
